<?xml version="1.0" encoding="utf-8"?>
<!-- Generator: Adobe Illustrator 24.1.1, SVG Export Plug-In . SVG Version: 6.00 Build 0)  -->
<svg version="1.1" id="Layer_1" xmlns="http://www.w3.org/2000/svg" xmlns:xlink="http://www.w3.org/1999/xlink" x="0px" y="0px"
	 viewBox="0 0 512 512" style="enable-background:new 0 0 512 512;" xml:space="preserve">
<g>
	<path d="M341.3,149.3v21.3H384v42.7h-21.3v-64H341.3v21.3V149.3H320V256h106.7V128H320v21.3H341.3z M192,341.3h234.7v-42.7H192
		V341.3z M192,256h85.3v-42.7H192V256z M192,170.7h85.3V128H192V170.7z M106.7,394.7c0,17.7-14.3,32-32,32c-17.7,0-32-14.3-32-32
		v-224l85.9,0V128L0,128v266.7c0,41.2,33.4,74.7,74.7,74.7c41.2,0,74.7-33.4,74.7-74.7H106.7L106.7,394.7z M149.3,394.7V85.3h320
		l0,309.3c0,17.7-14.3,32-32,32H74.7v42.7l362.7,0c41.2,0,74.7-33.4,74.7-74.7v-352H106.7v352H149.3L149.3,394.7z"/>
</g>
</svg>
