<?xml version="1.0" encoding="utf-8"?>
<!-- Generator: Adobe Illustrator 24.3.0, SVG Export Plug-In . SVG Version: 6.00 Build 0)  -->
<svg version="1.1" id="Layer_1" xmlns="http://www.w3.org/2000/svg" xmlns:xlink="http://www.w3.org/1999/xlink" x="0px" y="0px"
	 viewBox="0 0 512 512" style="enable-background:new 0 0 512 512;" xml:space="preserve">
<g>
	<path d="M109.5,63.07L76.68,30.02C0,106.2,0,161.41,0,232.73h23.27l23.27-1.45C46.55,163.11,46.55,125.59,109.5,63.07z
		 M435.3,30.02l-32.77,33.05c62.93,62.52,62.93,100.05,62.93,169.66l46.55-1.45C512,161.41,512,106.2,435.3,30.02z M256,488.73
		c30.5,0,56-19.41,65.57-46.55H190.41C199.98,469.32,225.48,488.73,256,488.73z M418.91,316.18V209.45
		c0-74.86-50.86-137.93-119.75-156.91c-6.82-17.16-23.48-29.27-43.16-29.27c-19.7,0-36.36,12.11-43.18,29.27
		C143.91,71.52,93.09,134.59,93.09,209.45v106.73l-39.73,39.73c-4.39,4.36-6.82,10.27-6.82,16.45v23.27
		c0,12.86,10.41,23.27,23.27,23.27h372.36c12.86,0,23.27-10.41,23.27-23.27v-23.27c0-6.18-2.45-12.09-6.82-16.45L418.91,316.18z"/>
</g>
</svg>
