<?xml version="1.0" encoding="utf-8"?>
<!-- Generator: Adobe Illustrator 27.2.0, SVG Export Plug-In . SVG Version: 6.00 Build 0)  -->
<svg version="1.1" id="Layer_1" xmlns="http://www.w3.org/2000/svg" xmlns:xlink="http://www.w3.org/1999/xlink" x="0px" y="0px"
	 viewBox="0 0 512 512" style="enable-background:new 0 0 512 512;" xml:space="preserve">
<style type="text/css">
	.st0{fill:#212121;}
</style>
<g>
	<path class="st0" d="M0,217.59c0-106,85.93-191.93,191.93-191.93c106,0,191.93,85.93,191.93,191.93s-85.93,191.93-191.93,191.93
		c-28.14,0-54.92-6.07-79.04-16.98c-32.2,7.43-66.87,13.82-82.83,16.67c-17.6,3.13-32.92-12.31-29.51-29.95
		c3.01-15.58,9.71-49.07,17.44-80.42C6.45,274.15,0,246.6,0,217.59z M157.23,110.29c-11.3,6.04-20.21,15.43-26.96,27.87
		c-5.05,9.32-1.59,20.97,7.72,26.02c9.32,5.05,20.97,1.59,26.02-7.72c3.75-6.91,7.63-10.35,11.3-12.31
		c3.86-2.06,9.06-3.31,16.61-3.32c5.72,0,12.47,2.03,17.42,6.09c4.36,3.58,8.17,9.33,8.17,19.49c0,4.99-1.92,7.29-15.06,17.61
		c-11.52,9.06-29.73,23.75-29.73,52.77c0,10.6,8.59,19.19,19.19,19.19c10.6,0,19.19-8.59,19.19-19.19c0-9.48,4.19-14.04,15.06-22.58
		l2.16-1.68c9.94-7.63,27.56-21.17,27.56-46.12c0-21.7-8.99-38.34-22.22-49.18c-12.64-10.36-28.28-14.78-41.76-14.78
		C180.29,102.45,168.34,104.36,157.23,110.29z M217.53,307.16c0-14.14-11.46-25.59-25.59-25.59c-14.13,0-25.59,11.46-25.59,25.59
		c0,14.13,11.46,25.59,25.59,25.59C206.07,332.76,217.53,321.3,217.53,307.16z M189.39,435.11c34.25,31.77,80.11,51.2,130.51,51.2
		c28.14,0,54.92-6.07,79.04-16.98c32.24,7.43,67.09,13.8,83.12,16.62c17.64,3.11,32.95-12.43,29.45-30.08
		c-3.09-15.57-9.93-48.97-17.67-80.25c11.55-24.69,18-52.24,18-81.25c0-84.01-53.98-155.42-129.15-181.43
		c17.07,31.05,26.78,66.72,26.78,104.66c0,120.14-97.39,217.52-217.53,217.52L189.39,435.11z"/>
</g>
</svg>
