<?xml version="1.0" encoding="utf-8"?>
<!-- Generator: Adobe Illustrator 27.2.0, SVG Export Plug-In . SVG Version: 6.00 Build 0)  -->
<svg version="1.1" id="Layer_1" xmlns="http://www.w3.org/2000/svg" xmlns:xlink="http://www.w3.org/1999/xlink" x="0px" y="0px"
	 viewBox="0 0 512 512" style="enable-background:new 0 0 512 512;" xml:space="preserve">
<style type="text/css">
	.st0{fill:#212121;}
</style>
<g>
	<path class="st0" d="M217.9,13.92c22.01-18.57,54.19-18.57,76.2,0l177.25,149.54c13.31,11.23,20.99,27.75,20.99,45.16v257.42
		c0,25.38-20.57,45.95-45.95,45.95H367.6c-25.38,0-45.95-20.57-45.95-45.95v-131.3c0-10.88-8.82-19.69-19.69-19.69h-91.91
		c-10.88,0-19.69,8.82-19.69,19.69v131.3c0,25.38-20.57,45.95-45.95,45.95H65.62c-25.38,0-45.95-20.57-45.95-45.95V208.62
		c0-17.41,7.68-33.93,20.99-45.16L217.9,13.92z"/>
</g>
</svg>
