<?xml version="1.0" encoding="utf-8"?>
<!-- Generator: Adobe Illustrator 24.1.1, SVG Export Plug-In . SVG Version: 6.00 Build 0)  -->
<svg version="1.1" id="Layer_1" xmlns="http://www.w3.org/2000/svg" xmlns:xlink="http://www.w3.org/1999/xlink" x="0px" y="0px"
	 viewBox="0 0 512 512" style="enable-background:new 0 0 512 512;" xml:space="preserve">
<style type="text/css">
	.st0{fill:#333333;}
</style>
<g id="XMLID_2_">
	<path id="XMLID_6_" class="st0" d="M298.8,284.4v-0.9l-6.5-90.3c0-2.8-0.9-4.7-2.8-6.5c-1.9-1.9-3.7-2.8-6.5-2.8h-52.1
		c-2.8,0-4.7,0.9-6.5,2.8c-1.9,1.9-2.8,3.7-2.8,6.5l-6.5,90.3v0.9c0,1.9,0.9,3.7,1.9,5.6c1.9,1.9,3.7,1.9,5.6,1.9h68.9
		c1.9,0,4.7-0.9,5.6-1.9C297.9,289,298.8,287.2,298.8,284.4z M512,415.7c0,14-4.7,20.5-13,20.5H300.7c2.8,0,4.7-0.9,6.5-2.8
		c1.9-1.9,2.8-3.7,1.9-6.5l-5.6-71.7c0-2.8-0.9-4.7-2.8-6.5c-1.9-1.9-3.7-2.8-6.5-2.8h-76.3c-2.8,0-4.7,0.9-6.5,2.8
		c-1.9,1.9-2.8,3.7-2.8,6.5l-5.6,71.7c0,2.8,0.9,4.7,1.9,6.5c1.9,1.9,3.7,2.8,6.5,2.8H13c-8.4,0-13-6.5-13-20.5
		c0-10.2,2.8-21.4,7.4-32.6L124.7,89.8c1.9-3.7,3.7-6.5,7.4-9.3c3.7-2.8,6.5-3.7,10.2-3.7h95c-2.8,0-4.7,0.9-6.5,2.8
		s-2.8,3.7-2.8,6.5l-4.7,54c0,2.8,0.9,4.7,1.9,6.5c0.9,1.9,3.7,2.8,6.5,2.8h46.5c2.8,0,4.7-0.9,6.5-2.8c1.9-1.9,2.8-3.7,1.9-6.5
		l-2.8-54.9c0-2.8-0.9-4.7-2.8-6.5s-3.7-2.8-6.5-2.8h95c3.7,0,7.4,0.9,10.2,3.7c3.7,2.8,5.6,5.6,7.4,9.3l117.3,293.2
		C509.2,395.2,512,405.4,512,415.7z"/>
</g>
</svg>
